<svg width="56" height="86" viewBox="0 0 56 86" fill="none" xmlns="http://www.w3.org/2000/svg">
<path d="M45.2709 0L35.5624 27.1112H30.168L39.848 0.0220652V0H45.2709Z" fill="#9871F3"/>
<path d="M39.8478 0.00012207V0.0221872L30.1678 27.1114H24.8411L34.5212 0.0221872V0.00012207H39.8478Z" fill="#F0F0F0"/>
<path d="M34.5213 0V0.0220652L24.8411 27.1112H19.3994L29.1079 0H34.5213Z" fill="#6F9DE2"/>
<path d="M39.355 27.515C40.0679 29.105 40.4639 30.8163 40.527 32.553C36.7114 30.6034 32.3879 29.504 27.8089 29.504C22.9744 29.504 18.4269 30.7296 14.46 32.8842C14.4805 31.034 14.8827 29.2058 15.6399 27.5149L15.9932 26.7278C16.3875 25.8461 17.2078 25.2294 18.1652 25.0953L19.2078 24.9486C24.7064 24.1789 30.2885 24.1789 35.7887 24.9486L36.8297 25.0953C37.7872 25.2294 38.6074 25.8461 39.0018 26.7278L39.355 27.515ZM36.5489 28.2894V27.2547C36.5489 26.955 36.306 26.7121 36.0064 26.7121H18.9885C18.6888 26.7121 18.4459 26.955 18.4459 27.2547V28.2894C18.4459 28.5906 18.6888 28.8336 18.9885 28.8336H36.0064C36.306 28.8336 36.5489 28.5907 36.5489 28.2894Z" fill="#C9C9C9"/>
<path d="M9.68945 0L19.3979 27.1112H24.7924L15.1124 0.0220652V0H9.68945Z" fill="#6F9DE2"/>
<path d="M15.1123 0V0.0220652L24.7923 27.1112H30.119L20.4388 0.0220652V0H15.1123Z" fill="#F0F0F0"/>
<path d="M20.4385 0V0.0220652L30.1186 27.1112H35.5604L25.852 0H20.4385Z" fill="#9871F3"/>
<path d="M40.7172 32.5531C49.7885 37.1841 56 46.6181 56 57.5032C56 72.9674 43.4634 85.504 27.9993 85.504C12.5351 85.504 0 72.9674 0 57.5032C0 46.8736 5.92291 37.6272 14.6502 32.8842C18.6173 30.7296 23.1647 29.504 27.9992 29.504C32.5782 29.504 36.9017 30.6034 40.7172 32.5531Z" fill="#B8B8B8"/>
<path d="M27.9992 83.2726C21.1161 83.2726 14.6453 80.592 9.77851 75.7248C4.91169 70.8577 2.23145 64.3864 2.23145 57.5032C2.23145 48.0474 7.39805 39.3655 15.7149 34.8456C19.4609 32.811 23.7088 31.7355 27.9991 31.7355C32.122 31.7355 36.0597 32.6793 39.7027 34.5408C43.8691 36.6678 47.3838 39.8919 49.8674 43.8648C52.4195 47.9475 53.7685 52.6636 53.7685 57.5033C53.7685 64.3864 51.0879 70.8576 46.2207 75.7249C41.3535 80.5921 34.8823 83.2726 27.9992 83.2726Z" fill="#C9C9C9"/>
<path d="M23.4242 33.0068C23.422 33.0085 23.4221 33.0102 23.42 33.0119C23.2995 33.1199 21.5919 34.6904 20.9219 36.0566C20.2259 37.4718 18.0626 38.8904 18.0624 38.8909C18.0586 38.8912 18.1337 36.7243 19.0412 35.7303C20.1236 34.5309 23.3239 33.051 23.4242 33.0068Z" fill="#929292"/>
<path d="M22.7282 34.1383C22.3416 35.0772 22.1173 35.8867 21.5562 36.9253C21.2289 37.5312 19.6742 38.5746 18.7347 38.7999C18.3591 38.9398 18.0623 38.891 18.0623 38.891C18.0626 38.8904 20.2258 37.4719 20.9219 36.0566C21.5918 34.6903 23.2991 33.1199 23.4199 33.012C23.3677 33.0815 22.9306 33.6487 22.7282 34.1383Z" fill="#E6E6E6"/>
<path d="M25.9629 37.4892C25.9601 37.4896 25.9587 37.4908 25.9559 37.4911C25.7867 37.5141 23.3565 37.8641 21.8075 38.6003C20.2023 39.3646 17.5479 39.3131 17.5479 39.3131C17.5457 39.3121 19.3219 37.6149 20.7404 37.3065C22.4443 36.9325 25.8556 37.4723 25.9629 37.4892Z" fill="#929292"/>
<path d="M24.5889 38.0316C23.5821 38.5841 22.7893 39.1173 21.5736 39.6479C20.8645 39.9581 18.9357 39.9449 18.0941 39.6088C17.7175 39.5146 17.5481 39.3126 17.5481 39.3126C17.5481 39.3126 20.2026 39.3645 21.8077 38.6003C23.3566 37.864 25.7869 37.514 25.9561 37.491C25.8651 37.5194 25.1143 37.7441 24.5889 38.0316Z" fill="#E6E6E6"/>
<path d="M18.1918 36.0875C18.1901 36.0895 18.1903 36.0911 18.1885 36.093C18.0878 36.2136 16.6779 37.9634 16.2732 39.3859C15.8508 40.859 13.9649 42.5203 13.965 42.5208C13.9612 42.5213 13.6086 40.3877 14.3238 39.3009C15.173 37.9906 18.0989 36.143 18.1918 36.0875Z" fill="#929292"/>
<path d="M17.7116 37.2819C17.5056 38.2495 17.4378 39.0704 17.0777 40.1583C16.8672 40.793 15.5152 42.0095 14.6196 42.3477C14.271 42.5319 13.9646 42.5209 13.9646 42.5209C13.9643 42.5204 15.8505 40.8592 16.2727 39.386C16.6772 37.9635 18.0875 36.2138 18.1881 36.0931C18.149 36.1677 17.8198 36.7773 17.7116 37.2819Z" fill="#E6E6E6"/>
<path d="M21.5979 40.1662C21.5953 40.1668 21.5939 40.1683 21.5912 40.1688C21.4265 40.2122 19.061 40.8553 17.6544 41.77C16.1976 42.7187 13.5325 42.9992 13.532 42.999C13.5293 42.9985 14.9726 41.1126 16.3339 40.6336C17.9681 40.0542 21.4881 40.1622 21.5979 40.1662Z" fill="#929292"/>
<path d="M20.327 40.8678C19.4263 41.5342 18.7364 42.1556 17.6244 42.8271C16.9762 43.2192 15.0452 43.4458 14.1369 43.2212C13.7417 43.1758 13.532 42.9988 13.532 42.9988C13.5325 42.9991 16.1976 42.7186 17.6544 41.7699C19.061 40.8553 21.4265 40.2121 21.5912 40.1687C21.5056 40.2078 20.7975 40.5206 20.327 40.8678Z" fill="#E6E6E6"/>
<path d="M13.3021 39.9895C13.3008 39.9917 13.3015 39.9932 13.3004 39.9955C13.2362 40.1303 12.3658 42.0799 12.3979 43.5214C12.4257 45.0146 11.0731 46.9783 11.0744 46.979C11.0709 46.9797 10.0689 45.0043 10.4442 43.8241C10.8817 42.4023 13.2254 40.0605 13.3021 39.9895Z" fill="#929292"/>
<path d="M13.1858 41.2253C13.2734 42.1911 13.4539 42.99 13.4273 44.1028C13.4108 44.7521 12.446 46.1836 11.6668 46.684C11.3795 46.9291 11.074 46.9789 11.074 46.9789C11.0731 46.9782 12.4257 45.0145 12.3978 43.5213C12.3655 42.0798 13.2359 40.1302 13.3003 39.9954C13.284 40.0743 13.1408 40.7216 13.1858 41.2253Z" fill="#E6E6E6"/>
<path d="M17.8946 43.2275C17.8921 43.2287 17.8911 43.2302 17.8887 43.2313C17.7389 43.3049 15.5943 44.3823 14.4839 45.535C13.3339 46.7295 10.7947 47.5221 10.7947 47.5221C10.7907 47.5221 11.6363 45.4298 12.8366 44.704C14.2751 43.8274 17.7855 43.2445 17.8946 43.2275Z" fill="#929292"/>
<path d="M16.8498 44.1481C16.1605 44.9628 15.6671 45.6938 14.7744 46.5555C14.2542 47.0585 12.4224 47.6535 11.4587 47.6167C11.0555 47.6506 10.7945 47.5222 10.7947 47.5221C10.7953 47.5221 13.3345 46.7295 14.4843 45.535C15.5948 44.3822 17.7393 43.3048 17.8892 43.2313C17.8162 43.2854 17.2102 43.7233 16.8498 44.1481Z" fill="#E6E6E6"/>
<path d="M9.76942 44.3562C9.76857 44.3585 9.76965 44.3599 9.76872 44.3622C9.72521 44.5014 9.16041 46.51 9.42233 47.9318C9.6868 49.4051 8.64728 51.4765 8.64859 51.477C8.64558 51.4779 7.32617 49.6193 7.51299 48.4174C7.72327 46.9702 9.70315 44.4335 9.76942 44.3562Z" fill="#929292"/>
<path d="M9.84782 45.588C10.0888 46.5336 10.3958 47.3061 10.5455 48.409C10.6318 49.0524 9.89328 50.56 9.19394 51.1291C8.94557 51.3988 8.6482 51.4771 8.6482 51.4771C8.64657 51.4766 9.68617 49.4051 9.42185 47.9319C9.15986 46.5099 9.72497 44.5015 9.76824 44.3623C9.76437 44.4416 9.72302 45.0946 9.84782 45.588Z" fill="#E6E6E6"/>
<path d="M14.8825 47.121C14.8801 47.1224 14.8798 47.1241 14.8773 47.1254C14.7385 47.212 12.7593 48.4799 11.8308 49.7254C10.8686 51.0159 8.45668 52.041 8.45583 52.0414C8.45211 52.0414 8.96271 49.8913 10.05 49.0597C11.351 48.0558 14.7759 47.1479 14.8825 47.121Z" fill="#929292"/>
<path d="M13.9799 48.13C13.4174 49.0012 13.039 49.7707 12.2823 50.7079C11.8414 51.2548 10.1046 52.0168 9.13509 52.0719C8.73738 52.1437 8.45581 52.0415 8.45581 52.0415C8.45658 52.0412 10.8687 51.016 11.8307 49.7255C12.7592 48.48 14.7384 47.2122 14.8773 47.1255C14.8128 47.1856 14.2739 47.6759 13.9799 48.13Z" fill="#E6E6E6"/>
<path d="M7.09416 49.1219C7.09423 49.1243 7.09524 49.1255 7.09501 49.1279C7.08672 49.27 7.03353 51.313 7.65336 52.6571C8.28712 54.0506 7.78692 56.2357 7.78909 56.2361C7.78715 56.2371 6.00849 54.6324 5.88663 53.4324C5.72413 51.989 7.04647 49.2073 7.09416 49.1219Z" fill="#929292"/>
<path d="M7.48311 50.3076C7.96064 51.1898 8.45962 51.8934 8.88613 52.9448C9.13357 53.5581 8.78486 55.1449 8.23943 55.8105C8.06291 56.1129 7.78909 56.236 7.78909 56.236C7.78676 56.2358 8.28727 54.0505 7.65335 52.657C7.03345 51.3129 7.08672 49.27 7.095 49.1278C7.1108 49.2058 7.23459 49.8473 7.48311 50.3076Z" fill="#E6E6E6"/>
<path d="M12.8554 51.0077C12.8535 51.0093 12.8535 51.011 12.8514 51.0127C12.7353 51.1189 11.0918 52.6652 10.4883 54.0263C9.86171 55.4363 7.74294 56.8166 7.74247 56.817C7.7386 56.8176 7.6941 54.639 8.55966 53.6571C9.5916 52.4728 12.7563 51.0502 12.8554 51.0077Z" fill="#929292"/>
<path d="M12.2131 52.133C11.8741 53.0708 11.6926 53.881 11.1814 54.9144C10.8831 55.5173 9.36228 56.5336 8.42007 56.74C8.04636 56.8727 7.74179 56.8171 7.74194 56.8171C7.74218 56.8167 9.86118 55.4365 10.4877 54.0264C11.0911 52.6652 12.7346 51.119 12.8509 51.0128C12.8019 51.0817 12.3907 51.6441 12.2131 52.133Z" fill="#E6E6E6"/>
<path d="M5.5693 54.0343C5.56977 54.0367 5.57124 54.0377 5.57155 54.04C5.59718 54.18 6.04034 56.1839 6.97953 57.4073C7.94357 58.6763 7.98135 60.8926 7.98437 60.8928C7.98321 60.8936 5.83687 59.5851 5.42251 58.4296C4.90782 57.0408 5.54159 54.1246 5.5693 54.0343Z" fill="#929292"/>
<path d="M6.24227 55.1348C6.9286 55.9258 7.59256 56.5395 8.26813 57.5056C8.66081 58.0692 8.70084 59.6756 8.32535 60.4089C8.2247 60.7314 7.98516 60.8929 7.98516 60.8929C7.98214 60.8928 7.94421 58.6764 6.98024 57.4074C6.04105 56.1841 5.59789 54.1801 5.57227 54.0402C5.60695 54.1137 5.88474 54.7219 6.24227 55.1348Z" fill="#E6E6E6"/>
<path d="M11.7266 55.0208C11.7251 55.0227 11.7253 55.0243 11.7237 55.0263C11.634 55.1472 10.3778 56.9044 10.1113 58.3273C9.83197 59.8016 8.08064 61.4687 8.08079 61.4693C8.077 61.47 7.5013 59.3411 8.11795 58.2514C8.84849 56.9381 11.6379 55.0767 11.7266 55.0208Z" fill="#929292"/>
<path d="M11.361 56.2177C11.2503 57.1863 11.2655 58.007 11.01 59.0956C10.8609 59.7305 9.60802 60.9517 8.73038 61.2936C8.39422 61.479 8.08105 61.4696 8.08105 61.4696C8.08082 61.4691 9.83216 59.8018 10.1116 58.3276C10.3783 56.9044 11.6343 55.1477 11.7241 55.0266C11.6919 55.1013 11.4195 55.7126 11.361 56.2177Z" fill="#E6E6E6"/>
<path d="M5.49878 59.7557C5.5001 59.7578 5.50172 59.7587 5.50288 59.7608C5.57411 59.8899 6.67177 61.7267 7.98792 62.7151C9.34271 63.7413 10.1162 65.8773 10.1197 65.8769C10.1193 65.8774 7.61074 65.0495 6.82221 64.0203C5.85832 62.7851 5.50064 59.8479 5.49878 59.7557Z" fill="#929292"/>
<path d="M6.5173 60.6764C7.44604 61.2969 8.29325 61.7524 9.26736 62.5465C9.83392 63.0101 10.4047 64.5541 10.2868 65.3399C10.2971 65.6722 10.12 65.877 10.12 65.877C10.1163 65.8774 9.34252 63.7415 7.98797 62.7152C6.67182 61.7268 5.57423 59.8899 5.50293 59.7609C5.5613 59.8244 6.03334 60.3522 6.5173 60.6764Z" fill="#E6E6E6"/>
<path d="M11.8025 59.4434C11.8018 59.4456 11.8024 59.447 11.8017 59.4493C11.7529 59.5845 11.1102 61.535 11.3228 62.9645C11.5378 64.4457 10.4036 66.4146 10.4049 66.4152C10.4017 66.4162 9.13479 64.4745 9.36992 63.2971C9.63872 61.8795 11.7335 59.5153 11.8025 59.4434Z" fill="#929292"/>
<path d="M11.8391 60.6727C12.0491 61.6301 12.333 62.4201 12.4445 63.5246C12.5088 64.169 11.7039 65.6044 10.9723 66.1132C10.7101 66.3608 10.405 66.4152 10.405 66.4152C10.4038 66.4148 11.5378 64.4457 11.323 62.9645C11.1104 61.5349 11.7532 59.5844 11.8019 59.4493C11.7952 59.528 11.73 60.1733 11.8391 60.6727Z" fill="#E6E6E6"/>
<path d="M6.86597 64.616C6.86736 64.6181 6.86899 64.6188 6.87047 64.6208C6.95199 64.7469 8.1952 66.5378 9.5911 67.4767C11.0285 68.4521 11.969 70.553 11.9723 70.5525C11.9721 70.5531 9.39422 69.8141 8.52371 68.8167C7.46095 67.6199 6.87487 64.7076 6.86597 64.616Z" fill="#929292"/>
<path d="M7.95914 65.4973C8.93859 66.0832 9.8232 66.5074 10.861 67.2648C11.4649 67.7069 12.1558 69.2252 12.0985 70.0118C12.1343 70.3425 11.9726 70.5525 11.9726 70.5525C11.9692 70.5529 11.029 68.4521 9.59148 67.4767C8.19551 66.5377 6.95222 64.747 6.87085 64.6208C6.93402 64.6822 7.44855 65.1914 7.95914 65.4973Z" fill="#E6E6E6"/>
<path d="M13.1642 64.0876C13.1636 64.0898 13.1642 64.0913 13.1637 64.0935C13.1252 64.2297 12.6299 66.1943 12.9531 67.6107C13.2818 69.0787 12.2981 71.0783 12.2993 71.0789C12.2961 71.0799 10.8765 69.1894 11.0211 68.0089C11.1808 66.5879 13.1003 64.1616 13.1642 64.0876Z" fill="#929292"/>
<path d="M13.2946 65.3107C13.5786 66.257 13.9235 67.0341 14.1201 68.1302C14.2339 68.7698 13.5378 70.227 12.8442 70.7587C12.6004 71.0144 12.2991 71.0789 12.2991 71.0789C12.2979 71.0783 13.2817 69.0788 12.953 67.6107C12.6296 66.1943 13.1252 64.2298 13.1636 64.0935C13.1628 64.1721 13.1472 64.8169 13.2946 65.3107Z" fill="#E6E6E6"/>
<path d="M9.61499 69.946C9.617 69.9478 9.61908 69.948 9.6211 69.9498C9.74536 70.0526 11.5918 71.5012 13.263 72.1003C14.9875 72.7241 16.6511 74.5539 16.6547 74.553C16.6552 74.5531 13.9433 74.4028 12.7467 73.6317C11.2946 72.7085 9.65664 70.0315 9.61499 69.946Z" fill="#929292"/>
<path d="M10.9808 70.5517C12.1288 70.8986 13.126 71.1119 14.3899 71.6148C15.1259 71.9084 16.3382 73.2262 16.5739 74.0014C16.7301 74.3138 16.6544 74.553 16.6544 74.553C16.651 74.5538 14.9873 72.7241 13.2627 72.1003C11.5912 71.5011 9.74526 70.0524 9.62085 69.9497C9.70369 69.9945 10.382 70.3702 10.9808 70.5517Z" fill="#E6E6E6"/>
<path d="M14.0427 74.738C14.0452 74.7395 14.0469 74.7394 14.0495 74.7408C14.1967 74.8247 16.3561 75.9973 18.1331 76.3595C19.9685 76.7377 22.0348 78.3209 22.0378 78.3198C22.0378 78.3198 19.3604 78.5407 18.0042 77.9435C16.3621 77.2297 14.1046 74.8161 14.0427 74.738Z" fill="#929292"/>
<path d="M15.5261 75.1459C16.7328 75.3291 17.7589 75.4019 19.1149 75.7249C19.9048 75.9136 21.4072 77.0502 21.8252 77.7851C22.0534 78.0729 22.0378 78.3198 22.0378 78.3198C22.035 78.3209 19.9685 76.7377 18.1331 76.3596C16.3562 75.9972 14.1966 74.8246 14.0496 74.7408C14.1418 74.7736 14.8968 75.0497 15.5261 75.1459Z" fill="#E6E6E6"/>
<path d="M15.4204 68.0361C15.4205 68.0385 15.422 68.0396 15.4221 68.0419C15.434 68.182 15.6765 70.1882 16.5021 71.4882C17.3493 72.8365 17.1549 74.9915 17.1575 74.9916C17.1559 74.9927 15.1131 73.4718 14.8152 72.2988C14.4409 70.8889 15.3843 68.1215 15.4204 68.0361Z" fill="#929292"/>
<path d="M15.9882 69.1887C16.6024 70.0405 17.2125 70.7163 17.7988 71.735C18.1393 72.3294 18.0134 73.8945 17.5543 74.5619C17.4182 74.8631 17.1573 74.9917 17.1573 74.9917C17.1549 74.9916 17.3493 72.8366 16.5019 71.4883C15.6763 70.1882 15.434 68.182 15.4219 68.042C15.4493 68.118 15.6684 68.7441 15.9882 69.1887Z" fill="#E6E6E6"/>
<path d="M18.9965 72.4813C18.997 72.4833 18.999 72.484 18.9992 72.4861C19.0403 72.6052 19.6891 74.3066 20.6777 75.3285C21.6952 76.3891 21.9985 78.2809 22.0009 78.2807C22 78.2813 19.9291 77.2163 19.4167 76.2398C18.7877 75.0667 18.9838 72.5595 18.9965 72.4813Z" fill="#929292"/>
<path d="M19.7349 73.4049C20.4464 74.0637 21.1154 74.5719 21.8373 75.3806C22.2573 75.8525 22.4903 77.2239 22.2448 77.8591C22.1945 78.137 22.0004 78.2805 22.0004 78.2805C21.9981 78.2807 21.6947 76.3887 20.6773 75.3283C19.6888 74.3064 19.0399 72.6051 18.9988 72.486C19.039 72.5481 19.3642 73.0609 19.7349 73.4049Z" fill="#E6E6E6"/>
<path d="M31.5615 33.0068C31.5638 33.0085 31.5637 33.0102 31.5658 33.0119C31.6862 33.1199 33.3938 34.6904 34.0638 36.0566C34.7599 37.4718 36.9231 38.8904 36.9234 38.8909C36.9272 38.8912 36.8521 36.7243 35.9445 35.7303C34.8621 34.5309 31.6618 33.051 31.5615 33.0068Z" fill="#929292"/>
<path d="M32.2572 34.1383C32.6437 35.0772 32.868 35.8867 33.4292 36.9253C33.7564 37.5312 35.3111 38.5746 36.2507 38.7999C36.6263 38.9398 36.923 38.8909 36.923 38.8909C36.9226 38.8904 34.7596 37.4719 34.0635 36.0566C33.3936 34.6903 31.6861 33.1199 31.5654 33.012C31.6177 33.0815 32.0547 33.6487 32.2572 34.1383Z" fill="#E6E6E6"/>
<path d="M29.0225 37.4892C29.0252 37.4896 29.0267 37.4908 29.0294 37.4911C29.1986 37.5141 31.6288 37.8641 33.1779 38.6003C34.783 39.3646 37.4375 39.3131 37.4375 39.3131C37.4396 39.3121 35.6635 37.6149 34.2449 37.3065C32.5411 36.9325 29.1298 37.4723 29.0225 37.4892Z" fill="#929292"/>
<path d="M30.3965 38.0316C31.4032 38.5841 32.1961 39.1173 33.4118 39.6479C34.1209 39.9581 36.0497 39.9449 36.8913 39.6088C37.2678 39.5146 37.4373 39.3126 37.4373 39.3126C37.4373 39.3126 34.7828 39.3645 33.1777 38.6003C31.6289 37.864 29.1985 37.514 29.0293 37.491C29.1204 37.5194 29.8712 37.7441 30.3965 38.0316Z" fill="#E6E6E6"/>
<path d="M36.7949 36.0875C36.7966 36.0895 36.7965 36.0911 36.7983 36.093C36.8989 36.2136 38.3089 37.9634 38.7136 39.3859C39.136 40.859 41.0219 42.5203 41.0217 42.5208C41.0256 42.5213 41.3782 40.3877 40.6629 39.3009C39.8138 37.9906 36.8878 36.143 36.7949 36.0875Z" fill="#929292"/>
<path d="M37.2744 37.2819C37.4804 38.2495 37.5481 39.0704 37.9083 40.1583C38.1187 40.793 39.4707 42.0095 40.3663 42.3477C40.715 42.5319 41.0213 42.5209 41.0213 42.5209C41.0216 42.5204 39.1354 40.8592 38.7132 39.386C38.3087 37.9635 36.8984 36.2138 36.7979 36.0931C36.8369 36.1677 37.1661 36.7773 37.2744 37.2819Z" fill="#E6E6E6"/>
<path d="M33.3877 40.1662C33.3902 40.1668 33.3917 40.1683 33.3944 40.1688C33.5591 40.2122 35.9245 40.8553 37.3312 41.77C38.7879 42.7187 41.4531 42.9992 41.4536 42.999C41.4563 42.9985 40.013 41.1126 38.6517 40.6336C37.0176 40.0542 33.4976 40.1622 33.3877 40.1662Z" fill="#929292"/>
<path d="M34.6585 40.8678C35.5592 41.5342 36.249 42.1556 37.3612 42.8271C38.0092 43.2192 39.9403 43.4458 40.8487 43.2212C41.2438 43.1758 41.4535 42.9988 41.4535 42.9988C41.453 42.9991 38.7878 42.7186 37.3311 41.7699C35.9245 40.8553 33.559 40.2121 33.3943 40.1687C33.48 40.2078 34.1881 40.5206 34.6585 40.8678Z" fill="#E6E6E6"/>
<path d="M41.6836 39.9894C41.6848 39.9916 41.6841 39.9931 41.6852 39.9953C41.7496 40.1302 42.6199 42.0797 42.5877 43.5212C42.56 45.0144 43.9125 46.9782 43.9114 46.9788C43.9148 46.9796 44.9168 45.0042 44.5415 43.824C44.1038 42.4022 41.7602 40.0604 41.6836 39.9894Z" fill="#929292"/>
<path d="M41.7998 41.2252C41.7121 42.191 41.5317 42.9899 41.5583 44.1027C41.5747 44.752 42.5396 46.1835 43.3188 46.6838C43.6061 46.929 43.9116 46.9787 43.9116 46.9787C43.9124 46.9781 42.5599 45.0143 42.5877 43.5211C42.6201 42.0796 41.7496 40.1301 41.6852 39.9952C41.7016 40.0741 41.8448 40.7214 41.7998 41.2252Z" fill="#E6E6E6"/>
<path d="M37.0908 43.2274C37.0932 43.2286 37.0943 43.2301 37.0966 43.2312C37.2464 43.3048 39.3911 44.3821 40.5014 45.5349C41.6514 46.7294 44.1906 47.522 44.1911 47.522C44.1946 47.522 43.349 45.4297 42.1487 44.7039C40.7103 43.8273 37.1999 43.2444 37.0908 43.2274Z" fill="#929292"/>
<path d="M38.1361 44.1479C38.8255 44.9627 39.3187 45.6937 40.2114 46.5553C40.7316 47.0583 42.5635 47.6534 43.5271 47.6165C43.9303 47.6505 44.1914 47.5221 44.1911 47.522C44.1905 47.5219 41.6514 46.7294 40.5015 45.5349C39.3911 44.3821 37.2466 43.3047 37.0967 43.2312C37.1697 43.2853 37.7756 43.7232 38.1361 44.1479Z" fill="#E6E6E6"/>
<path d="M45.2161 44.3562C45.2169 44.3585 45.2158 44.3599 45.2168 44.3622C45.2603 44.5014 45.8251 46.51 45.5631 47.9318C45.2987 49.4051 46.3382 51.4765 46.3369 51.477C46.3399 51.4779 47.6593 49.6193 47.4725 48.4174C47.2622 46.9702 45.2823 44.4335 45.2161 44.3562Z" fill="#929292"/>
<path d="M45.1373 45.5881C44.8965 46.5338 44.5894 47.3062 44.4398 48.4091C44.3534 49.0525 45.092 50.5601 45.7912 51.1292C46.0397 51.3989 46.337 51.4772 46.337 51.4772C46.3387 51.4767 45.2991 49.4052 45.5634 47.932C45.8254 46.51 45.2603 44.5016 45.217 44.3624C45.2208 44.4417 45.2622 45.0947 45.1373 45.5881Z" fill="#E6E6E6"/>
<path d="M40.103 47.1208C40.1054 47.1222 40.1057 47.1239 40.1082 47.1253C40.247 47.2119 42.2262 48.4798 43.1548 49.7253C44.1169 51.0158 46.5289 52.0409 46.5297 52.0412C46.5334 52.0413 46.0228 49.8912 44.9355 49.0595C43.6345 48.0557 40.2096 47.1478 40.103 47.1208Z" fill="#929292"/>
<path d="M41.0062 48.13C41.5687 49.0012 41.9471 49.7707 42.7038 50.7079C43.1447 51.2548 44.8816 52.0168 45.8511 52.0719C46.2488 52.1437 46.5305 52.0414 46.5305 52.0414C46.5295 52.0412 44.1175 51.016 43.1555 49.7255C42.227 48.48 40.2478 47.2122 40.1089 47.1255C40.1734 47.1856 40.7122 47.6759 41.0062 48.13Z" fill="#E6E6E6"/>
<path d="M47.8921 49.1218C47.892 49.1241 47.891 49.1254 47.8913 49.1278C47.8995 49.2699 47.9527 51.3129 47.3328 52.657C46.6991 54.0505 47.1993 56.2356 47.1971 56.236C47.1991 56.2369 48.9777 54.6323 49.0995 53.4323C49.2621 51.9889 47.9397 49.2071 47.8921 49.1218Z" fill="#929292"/>
<path d="M47.503 50.3074C47.0255 51.1895 46.5265 51.8931 46.1001 52.9446C45.8526 53.5579 46.2013 55.1447 46.7468 55.8103C46.9233 56.1126 47.1971 56.2358 47.1971 56.2358C47.1994 56.2356 46.699 54.0503 47.3328 52.6568C47.9528 51.3126 47.8995 49.2697 47.8912 49.1276C47.8754 49.2055 47.7515 49.847 47.503 50.3074Z" fill="#E6E6E6"/>
<path d="M42.1306 51.0074C42.1325 51.0091 42.1326 51.0108 42.1346 51.0125C42.2508 51.1186 43.8942 52.6649 44.4978 54.0261C45.1243 55.4361 47.2431 56.8163 47.2436 56.8168C47.2474 56.8173 47.2919 54.6388 46.4264 53.6569C45.3944 52.4726 42.2296 51.05 42.1306 51.0074Z" fill="#929292"/>
<path d="M42.7721 52.1327C43.1111 53.0704 43.2926 53.8807 43.8039 54.9141C44.1022 55.5169 45.6229 56.5332 46.5651 56.7397C46.9388 56.8724 47.2433 56.8168 47.2433 56.8168C47.2429 56.8164 45.124 55.4361 44.4974 54.0261C43.894 52.6648 42.2505 51.1187 42.1343 51.0125C42.1834 51.0814 42.5946 51.6437 42.7721 52.1327Z" fill="#E6E6E6"/>
<path d="M49.416 54.0342C49.4156 54.0366 49.4141 54.0376 49.4138 54.0399C49.3882 54.1799 48.945 56.1838 48.0058 57.4072C47.0418 58.6762 47.004 60.8925 47.001 60.8926C47.0021 60.8935 49.1485 59.5849 49.5628 58.4294C50.0775 57.0407 49.4438 54.1245 49.416 54.0342Z" fill="#929292"/>
<path d="M48.7442 55.1346C48.0579 55.9256 47.394 56.5393 46.7185 57.5053C46.3258 58.069 46.2858 59.6754 46.6612 60.4087C46.7619 60.7312 47.0014 60.8926 47.0014 60.8926C47.0045 60.8926 47.0424 58.6762 48.0064 57.4072C48.9455 56.1838 49.3887 54.1798 49.4143 54.0399C49.3796 54.1135 49.1018 54.7217 48.7442 55.1346Z" fill="#E6E6E6"/>
<path d="M43.2588 55.0208C43.2603 55.0227 43.26 55.0243 43.2616 55.0263C43.3514 55.1472 44.6076 56.9044 44.8741 58.3273C45.1535 59.8016 46.9048 61.4687 46.9047 61.4693C46.9084 61.47 47.4842 59.3411 46.8675 58.2514C46.1368 56.9381 43.3475 55.0767 43.2588 55.0208Z" fill="#929292"/>
<path d="M43.6247 56.2175C43.7355 57.186 43.7202 58.0068 43.9757 59.0954C44.1248 59.7303 45.3776 60.9514 46.2553 61.2933C46.5914 61.4788 46.9046 61.4693 46.9046 61.4693C46.9048 61.4688 45.1535 59.8016 44.8739 58.3273C44.6074 56.9042 43.3514 55.1475 43.2615 55.0264C43.2938 55.1011 43.5661 55.7123 43.6247 56.2175Z" fill="#E6E6E6"/>
<path d="M49.4857 59.7559C49.4844 59.7579 49.4827 59.7588 49.4816 59.7609C49.4104 59.89 48.3127 61.7268 46.9965 62.7152C45.6418 63.7414 44.8682 65.8774 44.8647 65.877C44.8651 65.8775 47.3737 65.0496 48.1622 64.0204C49.1261 62.7852 49.4837 59.848 49.4857 59.7559Z" fill="#929292"/>
<path d="M48.4672 60.6764C47.5384 61.2969 46.6912 61.7524 45.7171 62.5465C45.1506 63.0101 44.5799 64.5541 44.6977 65.3399C44.6875 65.6722 44.8646 65.877 44.8647 65.877C44.8682 65.8774 45.6419 63.7415 46.9965 62.7152C48.3126 61.7268 49.4102 59.8899 49.4815 59.7609C49.4231 59.8244 48.9512 60.3522 48.4672 60.6764Z" fill="#E6E6E6"/>
<path d="M43.1824 59.4435C43.1831 59.4457 43.1825 59.4471 43.1832 59.4494C43.232 59.5846 43.8747 61.5351 43.6621 62.9646C43.4471 64.4459 44.5813 66.4148 44.58 66.4153C44.5832 66.4163 45.8501 64.4746 45.615 63.2973C45.3461 61.8796 43.2515 59.5154 43.1824 59.4435Z" fill="#929292"/>
<path d="M43.1459 60.6727C42.9358 61.6301 42.6521 62.4201 42.5405 63.5246C42.4763 64.169 43.2811 65.6044 44.0127 66.1132C44.2748 66.3608 44.5799 66.4152 44.5799 66.4152C44.5813 66.4148 43.4472 64.4457 43.662 62.9645C43.8746 61.5349 43.232 59.5844 43.1832 59.4493C43.1898 59.528 43.255 60.1733 43.1459 60.6727Z" fill="#E6E6E6"/>
<path d="M48.1203 64.616C48.1189 64.6181 48.1173 64.6188 48.1157 64.6208C48.0343 64.7469 46.791 66.5378 45.3951 67.4767C43.9577 68.4521 43.0172 70.553 43.0139 70.5525C43.0141 70.5531 45.5919 69.8141 46.4625 68.8167C47.5253 67.6199 48.1114 64.7076 48.1203 64.616Z" fill="#929292"/>
<path d="M47.0278 65.4972C46.0484 66.0831 45.1638 66.5072 44.1259 67.2647C43.5221 67.7068 42.8312 69.2251 42.8885 70.0117C42.8526 70.3423 43.0143 70.5524 43.0143 70.5524C43.0178 70.5528 43.9579 68.452 45.3954 67.4766C46.7913 66.5376 48.0347 64.7468 48.1161 64.6207C48.053 64.682 47.5384 65.1912 47.0278 65.4972Z" fill="#E6E6E6"/>
<path d="M41.8223 64.0876C41.8228 64.0898 41.8222 64.0913 41.8226 64.0935C41.8612 64.2297 42.3565 66.1943 42.0333 67.6107C41.7045 69.0787 42.6883 71.0783 42.687 71.0789C42.6903 71.0799 44.11 69.1894 43.9653 68.0089C43.8057 66.5879 41.8862 64.1616 41.8223 64.0876Z" fill="#929292"/>
<path d="M41.6913 65.3107C41.4073 66.257 41.0624 67.0341 40.8658 68.1302C40.7519 68.7698 41.4481 70.227 42.1417 70.7587C42.3855 71.0144 42.6868 71.0789 42.6868 71.0789C42.688 71.0783 41.7042 69.0788 42.0329 67.6107C42.3562 66.1943 41.8608 64.2298 41.8223 64.0935C41.8231 64.1721 41.8386 64.8169 41.6913 65.3107Z" fill="#E6E6E6"/>
<path d="M45.3714 69.946C45.3695 69.9478 45.3674 69.948 45.3654 69.9498C45.2411 70.0526 43.3946 71.5012 41.7234 72.1003C39.999 72.7241 38.3354 74.5539 38.3318 74.553C38.3318 74.553 41.0431 74.4028 42.2397 73.6317C43.6918 72.7085 45.3297 70.0315 45.3714 69.946Z" fill="#929292"/>
<path d="M44.0053 70.5518C42.8571 70.8987 41.86 71.112 40.596 71.6149C39.8602 71.9085 38.6477 73.2263 38.412 74.0015C38.2559 74.314 38.3316 74.5531 38.3316 74.5531C38.335 74.554 39.9986 72.7242 41.7232 72.1004C43.3947 71.5012 45.2407 70.0526 45.3651 69.9498C45.2822 69.9947 44.6039 70.3703 44.0053 70.5518Z" fill="#E6E6E6"/>
<path d="M40.9436 74.7379C40.941 74.7394 40.9394 74.7393 40.9367 74.7407C40.7896 74.8245 38.6302 75.9972 36.8532 76.3594C35.0178 76.7376 32.9515 78.3208 32.9485 78.3197C32.9485 78.3197 35.6259 78.5406 36.982 77.9434C38.6242 77.2296 40.8816 74.816 40.9436 74.7379Z" fill="#929292"/>
<path d="M39.4606 75.1459C38.254 75.3291 37.2279 75.4019 35.8719 75.7249C35.0819 75.9136 33.5796 77.0502 33.1616 77.7851C32.9334 78.0729 32.949 78.3198 32.949 78.3198C32.9518 78.3209 35.0183 76.7377 36.8537 76.3596C38.6306 75.9972 40.7901 74.8246 40.9372 74.7408C40.845 74.7736 40.0899 75.0497 39.4606 75.1459Z" fill="#E6E6E6"/>
<path d="M39.5646 68.0361C39.5646 68.0385 39.5631 68.0396 39.563 68.0419C39.551 68.182 39.3085 70.1882 38.4829 71.4882C37.6357 72.8365 37.8301 74.9915 37.8276 74.9916C37.8292 74.9927 39.872 73.4718 40.1698 72.2988C40.5441 70.8889 39.6008 68.1215 39.5646 68.0361Z" fill="#929292"/>
<path d="M38.9965 69.1887C38.3824 70.0405 37.7722 70.7163 37.1859 71.735C36.8454 72.3294 36.9714 73.8945 37.4305 74.5619C37.5666 74.8631 37.8275 74.9917 37.8275 74.9917C37.8299 74.9916 37.6355 72.8366 38.4828 71.4883C39.3085 70.1882 39.5508 68.182 39.5629 68.042C39.5354 68.118 39.3163 68.7441 38.9965 69.1887Z" fill="#E6E6E6"/>
<path d="M35.9888 72.4812C35.9884 72.4831 35.9864 72.4839 35.9861 72.486C35.945 72.6051 35.2962 74.3065 34.3076 75.3283C33.2901 76.3889 32.9869 78.2808 32.9844 78.2806C32.9852 78.2812 35.0561 77.2162 35.5685 76.2397C36.1977 75.0666 36.0016 72.5594 35.9888 72.4812Z" fill="#929292"/>
<path d="M35.2496 73.4049C34.5381 74.0637 33.8692 74.5719 33.1472 75.3806C32.7271 75.8525 32.4942 77.2239 32.7397 77.8591C32.7901 78.137 32.9842 78.2805 32.9842 78.2805C32.9864 78.2807 33.2898 76.3887 34.3072 75.3283C35.2957 74.3064 35.9447 72.6051 35.9858 72.486C35.9454 72.5481 35.6203 73.0609 35.2496 73.4049Z" fill="#E6E6E6"/>
<path d="M32.0195 78.8169C32.0195 79.8732 30.0217 80.7295 27.5573 80.7295C25.0927 80.7295 23.095 79.8732 23.095 78.8169C23.095 77.7607 25.0927 76.9044 27.5573 76.9044C30.0217 76.9045 32.0195 77.7607 32.0195 78.8169Z" fill="#929292"/>
<path d="M27.5575 80.395C25.125 80.395 23.4297 79.5633 23.4297 78.8168C23.4297 78.0705 25.1249 77.2388 27.5575 77.2388C29.9902 77.2388 31.6854 78.0705 31.6854 78.8168C31.6854 79.5633 29.9902 80.395 27.5575 80.395Z" fill="#E6E6E6"/>
<path d="M18.3779 68.6954V63.4449L18.8699 63.0889C23.5343 59.7134 28.302 55.9047 28.302 53.2437C28.302 52.7981 28.302 51.4418 26.0511 51.4418C24.5949 51.4418 22.7936 52.0744 21.2322 53.1334L20.9296 53.3384H18.925V46.7234L19.6389 46.4121C21.6359 45.5407 24.4339 45 26.9416 45C32.7375 45 36.1978 47.8091 36.1978 52.5141C36.1978 56.507 33.4055 59.6548 30.1318 62.3151H37.1667V68.6954H18.3779Z" fill="#929292"/>
<path d="M35.9771 67.5056H19.5674V64.0526C25.1884 59.9847 29.4916 56.3248 29.4916 53.244C29.4916 49.4924 24.566 49.4351 20.5641 52.1489H20.1149V47.5024C24.3648 45.6481 35.0083 44.6179 35.0083 52.5139C35.0083 56.958 30.8569 60.4393 26.586 63.5048H35.977L35.9771 67.5056Z" fill="#EAEAEA"/>
</svg>
